<?xml version="1.0" standalone="no"?>
<!DOCTYPE svg PUBLIC "-//W3C//DTD SVG 20010904//EN"
 "http://www.w3.org/TR/2001/REC-SVG-20010904/DTD/svg10.dtd">
<svg version="1.0" xmlns="http://www.w3.org/2000/svg"
 width="479.000000pt" height="431.000000pt" viewBox="0 0 479.000000 431.000000"
 preserveAspectRatio="xMidYMid meet">
<metadata>
Created by potrace 1.16, written by Peter Selinger 2001-2019
</metadata>
<g transform="translate(0.000000,431.000000) scale(0.100000,-0.100000)"
fill="#000000" stroke="none">
<path d="M2125 4289 c-442 -60 -867 -270 -1180 -584 -283 -283 -475 -641 -562
-1050 -26 -124 -27 -143 -27 -400 0 -257 1 -276 27 -400 95 -444 323 -846 636
-1121 l84 -74 29 27 28 27 24 -23 c23 -22 25 -22 35 -4 9 16 10 16 11 -7 0
-14 6 -32 13 -41 11 -15 18 -12 67 27 30 24 57 40 61 36 6 -7 37 -68 88 -172
l21 -45 -4 89 -4 89 94 -5 c67 -4 119 0 180 12 48 10 87 14 90 8 3 -5 49 -6
101 -3 74 4 103 1 129 -11 56 -27 64 -59 64 -257 0 -97 4 -178 9 -181 4 -3 34
-8 64 -12 l56 -7 -9 34 c-6 19 -10 37 -10 40 0 3 27 14 60 24 34 10 63 22 65
25 2 4 -27 37 -65 74 -42 41 -67 73 -64 81 3 8 13 52 23 97 l17 83 59 6 c122
14 264 10 297 -7 28 -15 32 -15 40 0 8 14 35 16 201 15 106 -1 339 -1 519 0
l326 1 109 107 c299 296 490 648 580 1068 26 124 27 143 27 400 0 257 -1 276
-27 400 -176 827 -785 1437 -1607 1610 -111 24 -152 27 -365 30 -132 2 -271
-1 -310 -6z m123 -282 c-71 -67 -106 -112 -95 -123 3 -3 27 8 54 24 45 27 63
31 199 41 82 7 163 10 180 7 20 -4 64 5 124 24 51 17 95 29 97 27 1 -2 -26
-21 -62 -42 -36 -21 -68 -41 -70 -45 -10 -17 157 -35 310 -34 128 1 174 5 233
21 39 12 72 19 72 17 0 -1 -45 -28 -100 -59 -128 -72 -131 -86 -28 -134 66
-30 84 -33 237 -44 l166 -12 -129 -33 c-72 -17 -135 -37 -140 -43 -8 -9 -6
-10 7 -6 9 4 17 2 17 -3 0 -6 5 -10 11 -10 5 0 7 5 4 10 -3 6 3 10 14 10 22 0
40 -19 19 -21 -24 -1 46 -19 99 -24 29 -4 83 -17 120 -29 l68 -23 -60 -9 c-33
-5 -107 -8 -165 -7 -58 0 -96 -1 -85 -3 89 -20 239 -90 273 -127 13 -14 37
-31 53 -37 16 -7 29 -19 29 -27 0 -7 15 -22 33 -33 29 -17 107 -101 107 -115
0 -3 -29 18 -65 46 -54 42 -68 49 -80 39 -23 -19 -30 -8 96 -162 16 -21 27
-38 23 -38 -8 0 -175 78 -224 104 -19 10 -31 11 -50 3 -14 -6 -83 -13 -155
-16 l-130 -6 60 -14 c76 -19 99 -42 190 -196 45 -77 55 -110 34 -117 -6 -2 28
-37 75 -78 47 -40 84 -75 82 -78 -7 -7 -136 38 -196 68 -30 15 -79 44 -109 64
-29 20 -55 36 -58 36 -17 0 15 -42 97 -127 61 -63 106 -119 125 -157 16 -33
47 -81 68 -109 27 -34 33 -45 18 -38 -30 17 -95 86 -144 155 -23 32 -55 73
-71 90 l-29 31 25 -35 c14 -19 35 -54 46 -77 12 -23 33 -58 47 -79 13 -20 23
-40 20 -44 -3 -5 -1 -10 3 -12 9 -3 142 -225 142 -235 0 -18 -228 214 -268
273 -11 17 -12 16 -8 -11 5 -34 20 -91 31 -117 15 -36 -11 -16 -45 35 -41 60
-90 173 -89 202 1 17 2 17 6 3 2 -10 9 -18 14 -18 6 0 7 5 4 10 -8 13 1 13 26
-1 18 -9 19 -8 10 8 -5 10 -33 45 -61 78 -28 33 -68 84 -87 113 -38 57 -59 65
-25 10 11 -18 39 -85 62 -148 37 -102 188 -420 211 -444 5 -6 9 -16 9 -24 0
-9 -8 -4 -20 11 -13 17 -27 24 -37 20 -16 -6 -87 64 -165 165 -22 29 -43 50
-46 48 -3 -3 0 -11 6 -18 13 -16 142 -296 149 -323 2 -11 -7 3 -22 32 -15 29
-30 52 -34 51 -17 -3 -60 24 -95 61 -22 22 -43 38 -48 35 -5 -3 -17 -3 -26 1
-16 6 -16 7 1 20 12 8 14 15 8 20 -6 3 -11 1 -11 -4 0 -19 -22 -12 -27 9 -5
21 -23 28 -23 10 0 -18 32 -62 85 -117 43 -47 77 -71 60 -44 -9 15 9 20 25 8
8 -7 35 -36 58 -65 24 -28 47 -50 51 -48 4 3 13 -16 20 -42 7 -26 19 -67 27
-91 21 -67 18 -67 -35 -4 -74 88 -208 216 -218 210 -5 -3 -16 2 -25 12 -9 10
-20 20 -24 22 -12 5 -84 95 -84 105 0 4 8 0 18 -8 9 -8 24 -18 32 -23 8 -4 2
4 -15 18 -16 14 -33 23 -36 21 -4 -2 -14 5 -24 16 -10 11 -23 20 -30 20 -7 0
-20 10 -31 23 l-19 22 25 -20 c14 -11 7 0 -15 24 -41 44 -73 66 -82 58 -3 -3
7 -27 22 -54 l27 -48 -27 30 c-14 17 -50 81 -80 143 l-55 112 5 98 c3 71 1 86
-5 57 -5 -22 -10 -60 -11 -85 -2 -39 -29 -106 -29 -72 0 6 -4 12 -10 12 -6 0
-5 -11 2 -26 10 -22 10 -28 -5 -39 -9 -7 -17 -18 -17 -25 0 -22 40 21 41 44 1
17 2 18 6 4 2 -10 -4 -42 -15 -70 -33 -89 -46 -187 -29 -227 l14 -33 7 63 c4
35 10 74 13 87 6 27 31 26 47 -3 6 -11 15 -23 19 -26 5 -3 8 -8 7 -10 -1 -2
13 -34 30 -70 24 -52 32 -83 34 -138 1 -39 6 -74 9 -78 4 -3 2 -12 -4 -19 -5
-7 -12 -30 -15 -53 l-5 -40 33 32 c37 36 46 25 30 -35 -9 -34 -24 -39 -77 -25
-29 8 -145 66 -177 88 -33 24 -35 24 -40 -6 -7 -34 6 -101 41 -215 57 -183 56
-178 36 -200 -26 -28 -62 -25 -88 7 -12 15 -47 52 -78 83 -31 30 -64 67 -74
83 -9 15 -20 27 -24 27 -3 0 -7 -46 -9 -102 -1 -71 1 -98 8 -88 5 8 10 26 10
41 0 14 5 30 12 37 9 9 17 6 36 -15 13 -16 7 -4 -12 26 -20 29 -36 57 -36 62
0 4 30 -21 66 -57 42 -41 64 -70 60 -79 -3 -8 0 -15 7 -15 7 0 18 -5 25 -12
20 -20 -24 -58 -68 -58 -27 0 -47 -9 -79 -36 l-42 -36 6 28 c4 16 9 37 12 48
12 43 -17 2 -33 -47 -28 -86 -64 -114 -129 -96 -39 11 -63 42 -92 119 -9 25
-26 61 -38 80 -11 19 -28 53 -37 75 -9 22 -37 87 -62 145 -74 171 -82 244 -42
363 14 40 34 110 46 157 12 46 26 92 31 102 9 17 8 18 -10 6 -27 -17 -49 -3
-76 45 -22 41 -39 50 -26 15 5 -13 11 -52 15 -88 l6 -65 -35 69 c-40 75 -54
83 -30 16 8 -23 15 -44 15 -47 0 -13 -23 13 -45 51 -25 42 -25 44 -12 115 14
69 37 118 37 76 0 -10 3 -15 7 -11 4 4 8 33 9 64 1 31 5 86 8 122 l5 65 -75
-140 c-77 -143 -107 -185 -131 -185 -11 0 -11 4 -1 23 7 12 13 27 13 32 1 6 7
20 14 33 20 37 41 114 41 152 l0 35 -19 -24 c-10 -13 -26 -45 -35 -71 -10 -27
-26 -56 -37 -66 -11 -10 -17 -24 -14 -31 2 -8 1 -11 -4 -8 -6 3 -22 -11 -37
-30 -15 -20 -28 -34 -29 -33 -5 5 24 148 34 166 12 23 21 153 10 146 -5 -3 -9
-9 -9 -14 0 -27 -72 -105 -191 -205 -14 -11 -37 -36 -52 -55 -16 -19 -24 -25
-18 -13 6 12 8 28 5 36 -2 8 4 37 15 65 11 28 23 63 25 77 3 14 8 35 11 46 6
18 4 19 -12 11 -10 -6 -40 -34 -68 -62 -27 -28 -67 -66 -89 -83 l-38 -31 15
30 c9 16 23 38 32 49 16 20 16 19 10 -5 -6 -24 -6 -24 19 5 26 31 37 105 15
105 -5 0 -7 -4 -4 -10 3 -5 2 -10 -3 -10 -5 0 -12 -10 -15 -22 -13 -48 -15 -9
-2 47 15 69 45 133 88 190 17 22 -17 -9 -76 -70 -59 -60 -107 -105 -107 -100
0 6 -11 -3 -25 -20 -23 -28 -24 -29 -25 -8 0 12 4 25 10 28 15 9 140 199 140
213 0 9 -9 7 -27 -5 l-27 -18 24 33 c13 17 27 32 31 32 4 0 24 34 43 76 20 42
54 102 76 134 22 33 40 62 40 66 0 4 18 31 40 60 22 29 40 55 40 57 0 3 -26 8
-57 12 l-57 7 109 52 c61 29 116 60 124 69 12 16 7 16 -78 10 -60 -4 -91 -3
-91 4 0 6 15 14 33 17 17 3 60 19 93 35 34 16 88 35 120 41 33 7 63 15 68 18
5 3 21 6 35 7 14 2 58 12 97 24 61 19 71 25 67 42 -3 10 -1 19 5 19 6 0 20 21
32 46 31 64 180 208 180 174 0 -6 24 5 52 25 29 19 55 35 58 35 3 -1 -29 -33
-72 -73z m1235 -969 c4 -10 8 -9 16 2 8 12 15 10 41 -15 18 -17 43 -50 57 -75
14 -25 41 -69 60 -98 19 -30 33 -55 31 -57 -4 -3 -215 199 -243 233 -18 22
-18 22 8 22 14 0 28 -6 30 -12z m9 -367 c-1 -7 1 -10 6 -7 10 6 77 -33 69 -40
-3 -3 -17 2 -31 11 -35 23 -32 8 8 -43 l34 -42 21 26 c18 23 22 24 36 11 8 -9
15 -19 15 -24 0 -9 33 -48 97 -115 42 -43 37 -64 -10 -40 -55 29 -137 93 -131
104 3 5 -3 12 -14 15 -11 2 -37 30 -58 61 -21 32 -44 61 -51 65 -17 10 -17 40
0 34 6 -2 11 -10 9 -16z m-2080 -553 c22 -5 57 -37 69 -63 8 -15 5 -14 -11 5
-22 25 -34 30 -85 35 -16 1 -20 0 -9 -2 12 -2 32 -15 45 -29 19 -20 20 -24 6
-24 -10 0 -34 -9 -54 -20 -37 -19 -105 -26 -137 -14 -19 7 -21 45 -4 62 7 7 8
12 3 12 -6 1 10 12 35 25 43 24 82 27 142 13z"/>
<path d="M1971 3012 c-5 -21 -15 -80 -24 -132 -8 -52 -18 -104 -22 -115 l-7
-20 16 20 c24 32 69 75 89 86 15 8 27 5 58 -15 59 -39 52 -14 -11 38 -19 15
-35 35 -36 43 -2 8 -12 25 -23 37 -32 34 -26 101 6 75 9 -9 13 -8 13 0 0 6 -3
11 -7 12 -5 0 -16 2 -25 4 -13 2 -20 -6 -27 -33z"/>
<path d="M2029 2766 c-34 -30 -49 -58 -49 -92 0 -22 -2 -25 -15 -14 -12 10
-16 9 -21 -6 -3 -11 -10 -27 -15 -36 -5 -10 -9 -25 -9 -34 0 -15 85 -104 100
-104 17 0 47 66 39 85 -15 38 -9 53 27 74 31 19 35 25 30 49 -3 15 -9 38 -12
52 -6 29 -22 50 -38 50 -6 0 -23 -11 -37 -24z"/>
<path d="M2995 2653 c16 -71 52 -167 101 -270 30 -62 56 -113 59 -113 6 0 -25
82 -37 95 -4 5 -8 17 -8 26 0 9 -11 42 -25 72 l-24 56 54 -34 c30 -19 57 -35
60 -35 17 0 -1 29 -44 69 -27 25 -70 72 -95 104 -40 50 -46 54 -41 30z"/>
<path d="M2394 2497 c3 -32 10 -66 16 -77 13 -24 13 -40 0 -20 -7 11 -10 -1
-10 -41 0 -39 4 -59 14 -62 14 -6 76 -126 76 -149 0 -7 14 -40 30 -73 17 -32
28 -65 25 -73 -2 -7 0 -10 5 -7 6 3 10 44 10 91 0 80 22 164 42 164 11 0 10
-18 -2 -25 -16 -10 -8 -107 12 -140 10 -16 20 -37 24 -45 19 -48 24 -54 18
-20 -4 19 -10 37 -13 40 -12 9 -34 87 -28 101 4 10 6 9 6 -3 1 -10 5 -18 10
-18 6 0 10 48 9 113 -1 95 -3 107 -12 80 -18 -52 -28 -51 -22 2 5 46 5 47 -5
15 -5 -19 -13 -42 -16 -50 -3 -8 -7 -23 -8 -33 -1 -11 -8 -23 -15 -27 -9 -6
-13 -27 -12 -67 l2 -58 -45 90 c-56 115 -75 182 -55 195 11 7 17 3 23 -12 4
-11 10 -18 13 -15 8 8 -35 77 -47 77 -5 0 -9 9 -9 20 0 11 -9 34 -21 52 l-21
33 6 -58z"/>
<path d="M1067 533 l-87 -88 0 83 0 82 -55 0 -55 0 2 -237 3 -238 50 0 50 0 3
85 c2 47 6 88 11 93 4 4 31 -31 60 -78 28 -46 60 -89 71 -95 32 -17 95 -12
123 10 l26 21 -17 44 c-17 48 -22 51 -52 35 -23 -13 -47 10 -92 88 l-31 54 79
79 78 79 -34 35 c-19 19 -36 35 -40 35 -3 0 -44 -39 -93 -87z"/>
<path d="M80 583 c0 -16 -3 -38 -6 -50 -6 -22 -4 -23 62 -23 61 -1 67 -2 51
-14 -17 -13 -18 -29 -15 -166 l3 -152 33 -29 c18 -16 43 -29 56 -29 20 0 26 8
35 47 11 40 10 48 -3 55 -13 8 -16 33 -16 148 l0 140 54 0 c52 0 54 1 60 31
14 73 24 69 -154 69 l-160 0 0 -27z"/>
<path d="M465 601 l-30 -6 -3 -208 -2 -208 25 -25 25 -25 164 3 c123 2 167 7
180 17 16 13 17 36 14 221 -2 157 -6 211 -17 223 -11 14 -34 17 -137 17 -107
0 -124 -2 -133 -17 -10 -17 -10 -17 -11 0 0 18 -19 20 -75 8z m265 -226 l0
-135 -95 0 -95 0 0 135 0 135 95 0 95 0 0 -135z"/>
<path d="M1307 579 l-37 -31 75 -143 75 -143 -45 -33 c-24 -19 -45 -37 -45
-41 0 -3 9 -27 20 -53 l20 -46 46 33 c67 48 141 132 175 199 22 44 32 84 41
160 13 114 11 119 -53 119 l-36 0 -5 -82 c-3 -59 -11 -95 -26 -125 -13 -24
-25 -43 -27 -43 -3 0 -34 58 -70 130 -36 72 -66 130 -68 130 -1 -1 -19 -15
-40 -31z"/>
<path d="M1705 601 l-30 -6 -3 -210 c-2 -171 0 -214 12 -230 13 -18 29 -20
163 -23 90 -2 163 1 186 8 l37 11 0 210 c0 126 -4 218 -10 230 -10 17 -22 19
-137 19 -108 0 -128 -2 -139 -17 -13 -17 -13 -17 -14 0 0 18 -13 19 -65 8z
m265 -226 l0 -135 -100 0 -100 0 0 135 0 135 100 0 100 0 0 -135z"/>
<path d="M2327 603 c-3 -5 -8 -27 -12 -50 -7 -42 -6 -43 21 -43 27 0 27 0 9
-20 -19 -21 -17 -22 88 -128 59 -59 107 -111 107 -115 0 -4 -27 -7 -61 -7 -51
0 -62 3 -66 19 -5 18 -7 18 -51 4 -26 -9 -49 -17 -50 -19 -9 -7 39 -94 56
-103 12 -6 64 -11 117 -11 146 0 178 22 179 118 0 28 -15 48 -114 147 l-115
115 56 0 c30 0 60 -5 66 -11 12 -12 103 -4 103 9 0 28 -24 84 -40 92 -21 11
-287 14 -293 3z"/>
<path d="M2713 560 l-10 -50 36 -1 c36 0 36 0 14 -16 -22 -15 -23 -22 -23
-139 0 -71 -4 -125 -10 -129 -5 -3 -10 -26 -10 -51 0 -43 1 -44 34 -44 18 0
45 9 59 20 25 20 26 27 29 118 3 91 4 95 17 70 14 -28 16 -28 107 -28 115 0
114 -1 114 147 0 159 7 153 -189 153 l-158 0 -10 -50z"/>
<path d="M3120 591 c0 -10 -3 -33 -6 -50 -6 -31 -6 -31 37 -31 39 -1 42 -2 27
-14 -16 -11 -18 -31 -18 -140 0 -117 -1 -126 -19 -126 -13 0 -20 -10 -25 -31
-14 -70 -16 -69 88 -69 l93 0 7 37 c9 57 8 63 -14 63 -19 0 -20 7 -20 140 0
112 3 140 14 140 13 0 26 41 26 81 0 17 -9 19 -95 19 -86 0 -95 -2 -95 -19z"/>
<path d="M3370 598 c0 -7 -3 -30 -6 -50 -7 -38 -6 -38 27 -39 34 0 34 0 12
-16 -20 -14 -23 -24 -23 -89 0 -63 -3 -75 -20 -84 l-20 -11 20 -39 c12 -24 20
-59 20 -90 l0 -50 50 0 50 0 0 65 c0 61 2 66 26 75 34 13 31 15 53 -28 29 -57
86 -110 127 -118 19 -3 38 -4 41 0 3 3 8 28 11 56 4 44 2 50 -14 50 -24 1 -52
22 -76 57 -23 36 -24 35 16 57 18 10 39 29 45 42 15 34 14 197 -1 212 -17 17
-338 17 -338 0z m250 -128 c0 -39 -2 -42 -46 -60 -25 -11 -57 -23 -70 -26 -24
-6 -24 -5 -24 60 l0 66 70 0 70 0 0 -40z"/>
<path d="M3776 579 c-12 -64 -10 -69 37 -69 33 -1 38 -3 25 -11 -16 -9 -18
-27 -18 -139 0 -121 -1 -130 -19 -130 -20 0 -31 -25 -31 -72 l0 -28 95 0 95 0
0 34 c0 19 3 41 6 50 4 12 0 16 -15 16 -20 0 -21 4 -21 140 0 112 3 140 14
140 8 0 16 15 20 38 10 65 14 62 -88 62 l-93 0 -7 -31z"/>
<path d="M4020 598 c0 -7 -3 -30 -6 -50 l-7 -38 69 0 c60 -1 67 -2 52 -14 -16
-11 -18 -32 -18 -155 0 -85 4 -151 11 -164 17 -32 51 -57 79 -57 22 0 28 7 38
45 11 41 10 47 -8 65 -19 19 -20 31 -18 148 l3 127 56 3 57 3 6 37 c3 20 6 43
6 50 0 9 -39 12 -160 12 -121 0 -160 -3 -160 -12z"/>
<path d="M4387 603 c-3 -5 -8 -27 -12 -50 -7 -42 -6 -43 21 -43 27 0 27 0 9
-20 -19 -21 -17 -22 88 -128 59 -59 107 -111 107 -115 0 -4 -27 -7 -61 -7 -52
0 -62 3 -66 19 -5 18 -8 19 -45 5 -58 -20 -59 -22 -43 -62 26 -64 44 -72 156
-72 129 0 164 13 179 70 6 22 8 51 5 63 -4 12 -57 73 -118 135 l-112 112 56 0
c30 0 60 -5 66 -11 12 -12 103 -4 103 9 0 28 -24 84 -40 92 -21 11 -287 14
-293 3z"/>
</g>
</svg>
